<?xml version="1.0" encoding="utf-8"?>
<!-- Generator: Adobe Illustrator 18.0.0, SVG Export Plug-In . SVG Version: 6.00 Build 0)  -->
<!DOCTYPE svg PUBLIC "-//W3C//DTD SVG 1.1//EN" "http://www.w3.org/Graphics/SVG/1.1/DTD/svg11.dtd">
<svg version="1.1" id="Layer_1" xmlns="http://www.w3.org/2000/svg" xmlns:xlink="http://www.w3.org/1999/xlink" x="0px" y="0px"
	 viewBox="0 0 56 56" enable-background="new 0 0 56 56" xml:space="preserve">
<path d="M30.7,14.1c-1.1,0-2,0.9-1.9,2c0.1,1,0.9,1.8,2,1.8c5.5,0,9.9,4.5,10,9.9c0,5.5-4.3,10-9.8,10.1c-5.2,0.1-9.5-3.7-10.2-8.7
	c0-0.2,0.1-0.3,0.3-0.3h4.8c0.2,0,0.3-0.3,0.2-0.4l-7.1-7.1c-0.1-0.1-0.3-0.1-0.4,0l-7.1,7.1c-0.2,0.2,0,0.4,0.2,0.4h4.9
	c0.1,0,0.2,0.1,0.3,0.2c0.7,7.1,6.7,12.7,14,12.6c7.7-0.1,13.9-6.4,13.8-14.1C44.5,20.2,38.3,14.1,30.7,14.1z"/>
</svg>
